<svg xmlns="http://www.w3.org/2000/svg" id="Livello_2" data-name="Livello 2" viewBox="0 0 833.5 214.33"><defs><style>      .cls-1, .cls-2 {        fill: #3c3c3b;      }      .cls-2 {        font-family: Gotham-Book, Gotham;        font-size: 65.37px;      }      .cls-3 {        letter-spacing: .48em;      }    </style></defs><g id="Layer_1" data-name="Layer 1"><g><text class="cls-2" transform="translate(190.53 198.37)"><tspan class="cls-3" x="0" y="0">CHURC</tspan><tspan x="399.96" y="0">H</tspan></text><g><path class="cls-1" d="M55.46,48.64c-20.22-5.15-25.22-7.64-25.22-15.27v-.33c0-5.64,5.18-10.12,15.03-10.12s20.05,4.31,30.4,11.45l13.36-19.26C77.17,5.64,62.64,.33,45.6,.33,21.71,.33,4.67,14.27,4.67,35.36v.33c0,23.08,15.21,29.55,38.76,35.53,19.54,4.98,23.55,8.3,23.55,14.78v.33c0,6.81-6.34,10.96-16.87,10.96-13.36,0-24.39-5.48-34.91-14.11L0,101.27c14.03,12.45,31.9,18.6,49.61,18.6,25.22,0,42.92-12.95,42.92-36.02v-.34c0-20.25-13.36-28.72-37.08-34.86Z"></path><path class="cls-1" d="M152.48,1.16l-50.12,117.04h26.23l10.7-26.07h49.45l10.69,26.07h26.9L176.21,1.16h-23.72Zm-4,68.4l15.53-37.69,15.54,37.69h-31.07Z"></path><path class="cls-1" d="M321.87,57.44c8.35-4.65,15.37-11.96,15.37-25.07v-.33c0-18.26-14.7-30.05-38.59-30.05h-54.29V118.2h55.63c26.39,0,43.76-10.63,43.76-31.88v-.33c0-15.61-8.36-23.4-21.88-28.55Zm-52.46-33.04h25.39c10.87,0,16.88,4.32,16.88,11.96v.33c0,8.63-7.18,12.28-18.54,12.28h-23.72V24.4Zm48.78,58.77c0,8.63-6.85,12.62-18.21,12.62h-30.57v-25.57h29.73c13.2,0,19.04,4.82,19.04,12.62v.33Z"></path><path class="cls-1" d="M405.06,1.16l-50.12,117.04h26.23l10.69-26.07h49.45l10.69,26.07h26.9L428.78,1.16h-23.72Zm-4.01,68.4l15.54-37.69,15.53,37.69h-31.07Z"></path><path class="cls-1" d="M546.52,0c-36.08,0-62.31,27.06-62.31,60.1v.33c0,33.03,25.89,59.77,61.98,59.77s62.3-27.06,62.3-60.1v-.33c0-33.04-25.89-59.77-61.97-59.77Zm35.07,60.43c0,19.92-14.36,36.19-35.07,36.19s-35.42-16.6-35.42-36.52v-.33c0-19.92,14.37-36.19,35.08-36.19s35.41,16.6,35.41,36.53v.33Z"></path><polygon class="cls-1" points="618.02 25.56 653.59 25.56 653.59 118.2 679.32 118.2 679.32 25.56 714.9 25.56 714.9 1.99 618.02 1.99 618.02 25.56"></polygon><polygon class="cls-1" points="807.78 1.99 807.78 47.98 760.34 47.98 760.34 1.99 734.61 1.99 734.61 118.2 760.34 118.2 760.34 71.55 807.78 71.55 807.78 118.2 833.5 118.2 833.5 1.99 807.78 1.99"></polygon></g></g></g></svg>