<svg version="1.2" xmlns="http://www.w3.org/2000/svg" viewBox="0 0 600 598" width="600" height="598"><style>tspan{white-space:pre}.a{fill:#3c3c3b}.b{fill:#f5f5f5}.c{font-size: 36px;fill: #ffffff;font-weight: 500;font-family: "Gotham HT F"}</style><path class="a" d="m600 299c0 164.7-134.3 298.2-300 298.2-165.7 0-300-133.5-300-298.2 0-164.7 134.3-298.1 300-298.1 165.7 0 300 133.4 300 298.1z"/><path fill-rule="evenodd" class="b" d="m352.5 230.1c-3.2 14-21.7 33.1-19.2 39.7 4.6 5.4 11.9 5.3 16.5 7.2 1.8 0.6 1.1 2.7 0.8 3.2h-102.8c-0.4-0.3-0.6-1 0-1.6 2.5-2 13.8-4 21.3-10.3 1.2-0.9 3-1.8 4.5-0.9 1.4 1 0.5 6 1 5.9 3.1-0.1 27.4-3.5 27.3-8-2-2-19.8-16.3-22.2-25.2 0 0-2.1-5.1 4-12.6 5.4-6.7 2.1-17.6 1.1-19.3-3.4 3.1-16.8-5.3-13.5-14.5 1.5-5.1 8-18.3 12.5-20.4 3.8-0.6 9.6-0.5 10.2-0.5 0 0 0.1-8.9 5.9-15.8v-0.7c-0.9-1-1.5-2.4-1.5-4 0-2.8 1.8-5 4.1-5 2.2 0 4 2.2 4 5 0 1.5-0.5 2.9-1.3 3.8l0.1 6.4c3.5 1.3 0.3 5.4 0.3 5.9 3.3-0.1 0.6 4.4 0.6 4.4 0 0 25.3-0.2 32.1 0 2.5 0 2.2 9.6 2 13.5 0.3 1.5-13.1 12.5-14.6 10.5-1-1.4-0.6-4.4-3.2-4-2.3 0.4-8.1 3.5-9.4 1.3-0.8-1.4-0.5-3.2-0.3-4.8 0-1.7-1.8-1.7-2.4-0.6-0.6 1.6 1.1 40.8 1.1 40.8 0 0 30.6-2.3 34.7-2.6 7.1-0.6 6.3 3.2 6.3 3.2zm-24.1 16.9c0 0-10.6 2.9-11.4 3.6 0.4 2 5.1 12.2 7.7 16.3 0.3 0.2 0.3-0.2 0.4-0.3 0.4-3.1 3.4-17 3.3-19.6z"/><path class="b" d="m97.4 366.3c-9.8 0-19.6-3.4-27.4-10.2l8.4-10c5.8 4.7 11.9 7.8 19.3 7.8 5.8 0 9.3-2.3 9.3-6.1v-0.2c0-3.5-2.2-5.4-13-8.1-13-3.3-21.4-6.9-21.4-19.6v-0.2c0-11.6 9.4-19.3 22.6-19.3 9.4 0 17.4 2.9 24 8.1l-7.4 10.6c-5.7-3.9-11.3-6.3-16.8-6.3-5.4 0-8.3 2.5-8.3 5.6v0.2c0 4.2 2.8 5.6 13.9 8.4 13.1 3.4 20.5 8.1 20.5 19.2v0.2c0 12.8-9.8 19.9-23.7 19.9z"/><path fill-rule="evenodd" class="b" d="m180.1 365.4l-5.9-14.4h-27.3l-5.9 14.4h-14.5l27.7-64.6h13.1l27.6 64.6zm-19.5-47.6l-8.6 20.8h17.1z"/><path fill-rule="evenodd" class="b" d="m235.6 365.4h-30.7v-64.1h29.9c13.2 0 21.3 6.5 21.3 16.6v0.1c0 7.3-3.9 11.3-8.5 13.9 7.5 2.8 12.1 7.1 12.1 15.7v0.2c0 11.7-9.6 17.6-24.1 17.6zm6.4-45.2c0-4.2-3.3-6.6-9.3-6.6h-14v13.6h13.1c6.2 0 10.2-2 10.2-6.8zm3.6 25.7c0-4.3-3.2-7-10.5-7h-16.4v14.1h16.9c6.2 0 10-2.2 10-7z"/><path fill-rule="evenodd" class="b" d="m319.4 365.4l-5.9-14.4h-27.3l-5.8 14.4h-14.5l27.6-64.6h13.1l27.7 64.6zm-19.6-47.6l-8.5 20.8h17.1z"/><path fill-rule="evenodd" class="b" d="m371.4 366.5c-19.9 0-34.2-14.8-34.2-33v-0.2c0-18.2 14.5-33.1 34.4-33.1 19.9 0 34.2 14.7 34.2 33v0.1c0 18.3-14.5 33.2-34.4 33.2zm19.5-33.2c0-11-8.1-20.1-19.5-20.1-11.4 0-19.4 9-19.4 20v0.1c0 11 8.1 20.2 19.6 20.2 11.4 0 19.3-9 19.3-20z"/><path class="b" d="m444.8 314.3v51.1h-14.1v-51.1h-19.7v-13h53.5v13z"/><path class="b" d="m515.7 365.4v-25.7h-26.2v25.7h-14.1v-64.1h14.1v25.3h26.2v-25.3h14.2v64.1z"/><text style="transform:matrix(1,0,0,1,299.978,409.629)" ><tspan x="-129" y="0" class="c" dx="0 17 17 17 17 17" >CATANI</tspan><tspan  y="0" class="c">A
</tspan></text></svg>