<?xml version="1.0" encoding="utf-8"?>
<!-- Svg Vector Icons : http://www.onlinewebfonts.com/icon -->
<!DOCTYPE svg PUBLIC "-//W3C//DTD SVG 1.1//EN" "http://www.w3.org/Graphics/SVG/1.1/DTD/svg11.dtd">
<svg version="1.1" xmlns="http://www.w3.org/2000/svg" xmlns:xlink="http://www.w3.org/1999/xlink" x="0px" y="0px" viewBox="0 0 256 256" enable-background="new 0 0 256 256" xml:space="preserve">
<metadata> Svg Vector Icons : http://www.onlinewebfonts.com/icon </metadata>
<g><g><path fill="#000000" d="M140.6,15.2C137.7,12.3,132,10,128,10H39.5c-4,0-7.4,3.3-7.4,7.4v221.3c0,4,3.3,7.4,7.4,7.4h177c4,0,7.4-3.3,7.4-7.4V105.9c0-4-2.3-9.7-5.2-12.6L140.6,15.2z M209.1,231.3H46.9V24.8h80.9c0.7,0.1,2,0.6,2.5,1l77.8,77.8c0.4,0.6,0.9,1.8,1,2.5L209.1,231.3z M216.5,10h-44.2c-4,0-5,2.3-2.2,5.2l48.6,48.6c2.9,2.9,5.2,1.9,5.2-2.2V17.4C223.9,13.3,220.5,10,216.5,10z"/></g></g>
</svg>